<svg width="298" height="305" viewBox="0 0 298 305" fill="none" xmlns="http://www.w3.org/2000/svg">
<g filter="url(#filter0_d_2058_16970)">
<rect x="24.2988" y="24" width="236.701" height="244" rx="10.7216" fill="white"/>
</g>
<rect x="89.8926" y="92.51" width="142.806" height="1.16576" fill="#E9EBEF"/>
<rect x="89.8926" y="128.357" width="142.806" height="1.16576" fill="#E9EBEF"/>
<rect x="89.8926" y="164.204" width="142.806" height="1.16576" fill="#E9EBEF"/>
<rect x="89.8926" y="200.051" width="142.806" height="1.16576" fill="#E9EBEF"/>
<rect x="89.8926" y="236.386" width="142.806" height="1.16576" fill="#E9EBEF"/>
<path d="M52.3111 51.8087L54.8208 51.805L57.2442 56.3655L57.3477 56.3653L59.7575 51.7976L62.2672 51.7939L58.4119 58.651L58.4175 62.3975L56.1924 62.4008L56.1868 58.6543L52.3111 51.8087ZM65.3919 62.5423C64.5881 62.5435 63.8928 62.3738 63.3058 62.0331C62.7222 61.689 62.2713 61.2102 61.953 60.5966C61.6347 59.9795 61.475 59.2639 61.4738 58.4498C61.4725 57.6287 61.6302 56.9109 61.9466 56.2964C62.2631 55.6784 62.7126 55.1982 63.2951 54.8558C63.881 54.5099 64.5759 54.3364 65.3797 54.3352C66.1835 54.334 66.8772 54.5055 67.4607 54.8496C68.0477 55.1902 68.5003 55.6691 68.8186 56.2861C69.1369 56.8997 69.2967 57.6171 69.2979 58.4381C69.2991 59.2523 69.1415 59.9683 68.8251 60.5863C68.5086 61.2009 68.0574 61.6811 67.4714 62.0269C66.8889 62.3693 66.1958 62.5411 65.3919 62.5423ZM65.3998 60.8346C65.7654 60.8341 66.0706 60.7301 66.3152 60.5228C66.5598 60.312 66.744 60.0254 66.8676 59.663C66.9947 59.3005 67.0579 58.8882 67.0573 58.4259C67.0566 57.9636 66.9921 57.5515 66.8639 57.1894C66.7392 56.8274 66.5542 56.5413 66.309 56.3313C66.0637 56.1212 65.7583 56.0164 65.3926 56.017C65.0234 56.0175 64.7131 56.1232 64.4616 56.334C64.2135 56.5448 64.0259 56.8314 63.8988 57.1939C63.7752 57.5563 63.7137 57.9686 63.7144 58.4309C63.7151 58.8932 63.7778 59.3053 63.9025 59.6674C64.0307 60.0294 64.2191 60.3155 64.4678 60.5255C64.72 60.7322 65.0306 60.8352 65.3998 60.8346ZM75.8293 58.9872L75.8225 54.4231L78.0269 54.4199L78.0387 62.3682L75.9223 62.3714L75.9201 60.9276L75.8373 60.9278C75.6586 61.3937 75.3608 61.7685 74.9438 62.052C74.5302 62.3355 74.025 62.4777 73.4282 62.4786C72.8969 62.4794 72.4293 62.3593 72.0253 62.1184C71.6213 61.8776 71.3052 61.5348 71.0768 61.0901C70.8519 60.6454 70.7373 60.1126 70.7329 59.4916L70.7254 54.4307L72.9298 54.4275L72.9367 59.095C72.9409 59.5642 73.0674 59.9349 73.3162 60.2071C73.5649 60.4792 73.8981 60.615 74.3155 60.6144C74.5811 60.614 74.8294 60.5532 75.0604 60.4321C75.2913 60.3076 75.4773 60.1245 75.6184 59.8828C75.763 59.6411 75.8332 59.3426 75.8293 58.9872ZM79.802 62.3656L79.7902 54.4172L81.9273 54.414L81.9294 55.8009L82.0122 55.8007C82.1563 55.3072 82.399 54.9343 82.7402 54.6819C83.0813 54.4261 83.4744 54.2979 83.9194 54.2972C84.0298 54.2971 84.1488 54.3038 84.2765 54.3174C84.4042 54.331 84.5163 54.3498 84.6129 54.3738L84.6159 56.3299C84.5123 56.299 84.3691 56.2716 84.1862 56.2477C84.0034 56.2238 83.836 56.212 83.6842 56.2122C83.36 56.2127 83.0703 56.2839 82.8152 56.4257C82.5636 56.5641 82.3638 56.7576 82.2158 57.0062C82.0713 57.2548 81.9993 57.5412 81.9997 57.8655L82.0064 62.3623L79.802 62.3656ZM91.4039 62.4984C90.8968 62.4991 90.4448 62.4118 90.0478 62.2365C89.6508 62.0577 89.3365 61.7942 89.1048 61.4462C88.8766 61.0946 88.7621 60.6567 88.7613 60.1323C88.7606 59.6907 88.8412 59.3197 89.0029 59.0194C89.1646 58.719 89.385 58.4772 89.6641 58.2939C89.9433 58.1107 90.2605 57.9722 90.6157 57.8785C90.9743 57.7848 91.3503 57.7187 91.7435 57.6802C92.2057 57.6312 92.5782 57.5858 92.861 57.544C93.1438 57.4987 93.349 57.4329 93.4765 57.3464C93.604 57.26 93.6677 57.1323 93.6674 56.9632L93.6674 56.9322C93.6669 56.6044 93.563 56.351 93.3557 56.172C93.1519 55.9929 92.862 55.9036 92.486 55.9042C92.0893 55.9048 91.7737 55.9932 91.5394 56.1695C91.3051 56.3423 91.1502 56.5599 91.0747 56.8222L89.0356 56.6596C89.1383 56.1765 89.3413 55.7588 89.6443 55.4064C89.9474 55.0507 90.3385 54.7775 90.8178 54.5871C91.3004 54.3932 91.8592 54.2958 92.4939 54.2948C92.9355 54.2942 93.3582 54.3453 93.762 54.4482C94.1692 54.5511 94.53 54.7109 94.8442 54.9278C95.1619 55.1447 95.4124 55.4237 95.5958 55.765C95.7791 56.1028 95.8712 56.508 95.8719 56.9806L95.8798 62.3416L93.7893 62.3448L93.7876 61.2425L93.7255 61.2426C93.5983 61.4912 93.4278 61.7105 93.2142 61.9006C93.0006 62.0872 92.7438 62.2342 92.4438 62.3416C92.1439 62.4455 91.7972 62.4978 91.4039 62.4984ZM92.033 60.9761C92.3573 60.9756 92.6435 60.9113 92.8917 60.7833C93.1399 60.6519 93.3346 60.4756 93.4757 60.2546C93.6168 60.0336 93.6871 59.7834 93.6867 59.504L93.6855 58.6605C93.6165 58.7055 93.5217 58.747 93.401 58.7851C93.2838 58.8198 93.151 58.8528 93.0027 58.884C92.8544 58.9119 92.7061 58.9379 92.5578 58.9623C92.4095 58.9832 92.275 59.0024 92.1543 59.0198C91.8956 59.0582 91.6697 59.1189 91.4767 59.202C91.2836 59.2851 91.1337 59.3974 91.027 59.539C90.9202 59.6771 90.867 59.8497 90.8673 60.0567C90.8678 60.3568 90.9768 60.5861 91.1943 60.7445C91.4154 60.8994 91.6949 60.9766 92.033 60.9761ZM101.853 54.3844L101.855 56.0403L96.9494 56.0476L96.9469 54.3917L101.853 54.3844ZM98.0817 62.3384L98.069 53.8156C98.0681 53.2395 98.1795 52.7615 98.4032 52.3817C98.6303 52.0019 98.9404 51.7168 99.3334 51.5265C99.7264 51.3362 100.173 51.2406 100.673 51.2399C101.011 51.2394 101.32 51.2648 101.6 51.3161C101.883 51.3674 102.093 51.4137 102.231 51.4549L101.84 53.1114C101.754 53.0839 101.647 53.0582 101.519 53.0343C101.395 53.0103 101.267 52.9984 101.136 52.9986C100.812 52.9991 100.586 53.0753 100.459 53.2273C100.331 53.3758 100.268 53.5846 100.268 53.8537L100.281 62.3351L98.0817 62.3384ZM107.474 54.376L107.476 56.0319L102.57 56.0392L102.568 54.3833L107.474 54.376ZM103.703 62.33L103.69 53.8072C103.689 53.2311 103.801 52.7531 104.024 52.3733C104.251 51.9935 104.561 51.7084 104.954 51.5181C105.347 51.3278 105.794 51.2323 106.294 51.2315C106.632 51.231 106.941 51.2564 107.221 51.3077C107.504 51.3591 107.714 51.4053 107.852 51.4465L107.461 53.103C107.375 53.0756 107.268 53.0498 107.14 53.0259C107.016 53.0019 106.889 52.99 106.757 52.9902C106.433 52.9907 106.207 53.0669 106.08 53.2189C105.952 53.3675 105.889 53.5763 105.889 53.8453L105.902 62.3267L103.703 62.33ZM108.832 62.3223L108.82 54.374L111.025 54.3707L111.037 62.3191L108.832 62.3223ZM109.926 53.3477C109.598 53.3482 109.317 53.24 109.082 53.023C108.851 52.8025 108.735 52.5388 108.734 52.2318C108.734 51.9282 108.849 51.6676 109.08 51.4499C109.314 51.2287 109.595 51.1179 109.923 51.1174C110.251 51.1169 110.53 51.2269 110.762 51.4474C110.997 51.6644 111.114 51.9246 111.115 52.2282C111.115 52.5353 110.998 52.7993 110.764 53.0205C110.533 53.2382 110.254 53.3472 109.926 53.3477ZM114.991 51.7153L115.007 62.3131L112.802 62.3164L112.787 51.7186L114.991 51.7153ZM116.773 62.3105L116.761 54.3621L118.965 54.3589L118.977 62.3072L116.773 62.3105ZM117.867 53.3359C117.539 53.3364 117.258 53.2281 117.023 53.0112C116.791 52.7907 116.675 52.527 116.675 52.2199C116.674 51.9164 116.79 51.6557 117.02 51.438C117.255 51.2169 117.536 51.1061 117.863 51.1056C118.191 51.1051 118.471 51.2151 118.702 51.4355C118.937 51.6525 119.055 51.9128 119.055 52.2164C119.056 52.5234 118.939 52.7875 118.705 53.0086C118.474 53.2263 118.195 53.3354 117.867 53.3359ZM123.01 62.4513C122.503 62.452 122.051 62.3647 121.654 62.1894C121.257 62.0106 120.942 61.7472 120.711 61.3991C120.482 61.0475 120.368 60.6096 120.367 60.0852C120.367 59.6436 120.447 59.2726 120.609 58.9723C120.77 58.6719 120.991 58.4301 121.27 58.2468C121.549 58.0636 121.866 57.9251 122.222 57.8314C122.58 57.7377 122.956 57.6716 123.349 57.6331C123.812 57.5841 124.184 57.5387 124.467 57.4969C124.75 57.4516 124.955 57.3858 125.082 57.2993C125.21 57.2129 125.274 57.0852 125.273 56.9161L125.273 56.8851C125.273 56.5573 125.169 56.3039 124.962 56.1249C124.758 55.9458 124.468 55.8565 124.092 55.8571C123.695 55.8577 123.38 55.9461 123.145 56.1224C122.911 56.2952 122.756 56.5128 122.681 56.7751L120.641 56.6125C120.744 56.1294 120.947 55.7117 121.25 55.3594C121.553 55.0036 121.944 54.7305 122.424 54.54C122.906 54.3461 123.465 54.2487 124.1 54.2477C124.541 54.2471 124.964 54.2982 125.368 54.4011C125.775 54.504 126.136 54.6638 126.45 54.8807C126.768 55.0976 127.018 55.3766 127.202 55.7179C127.385 56.0557 127.477 56.4609 127.478 56.9335L127.486 62.2945L125.395 62.2977L125.393 61.1954L125.331 61.1955C125.204 61.4441 125.034 61.6634 124.82 61.8535C124.606 62.0401 124.35 62.1871 124.05 62.2945C123.75 62.3984 123.403 62.4507 123.01 62.4513ZM123.639 60.929C123.963 60.9285 124.249 60.8642 124.498 60.7362C124.746 60.6048 124.94 60.4285 125.082 60.2075C125.223 59.9865 125.293 59.7363 125.293 59.4569L125.291 58.6134C125.222 58.6584 125.128 58.6999 125.007 58.738C124.89 58.7727 124.757 58.8057 124.609 58.8369C124.46 58.8648 124.312 58.8909 124.164 58.9152C124.015 58.9361 123.881 58.9553 123.76 58.9727C123.501 59.0111 123.276 59.0718 123.083 59.1549C122.889 59.238 122.74 59.3503 122.633 59.4919C122.526 59.6301 122.473 59.8026 122.473 60.0096C122.474 60.3097 122.583 60.539 122.8 60.6974C123.021 60.8523 123.301 60.9295 123.639 60.929ZM133.412 54.3373L133.414 55.9932L128.628 56.0004L128.625 54.3445L133.412 54.3373ZM129.709 52.4386L131.914 52.4353L131.925 59.8455C131.925 60.049 131.956 60.2076 132.018 60.3214C132.081 60.4317 132.167 60.5092 132.278 60.5539C132.391 60.5986 132.523 60.6208 132.671 60.6206C132.774 60.6204 132.878 60.6116 132.981 60.5942C133.085 60.5734 133.164 60.5577 133.219 60.5473L133.568 62.1872C133.458 62.2218 133.303 62.2617 133.103 62.3069C132.903 62.3555 132.66 62.3852 132.373 62.3959C131.842 62.4174 131.376 62.3474 130.976 62.1859C130.579 62.0243 130.27 61.7729 130.049 61.4317C129.827 61.0905 129.718 60.6595 129.721 60.1385L129.709 52.4386ZM138.397 62.4335C137.579 62.4348 136.875 62.2702 136.285 61.9399C135.698 61.6061 135.245 61.1342 134.927 60.5241C134.609 59.9105 134.449 59.1845 134.448 58.3462C134.446 57.5286 134.604 56.8108 134.92 56.1928C135.237 55.5748 135.683 55.0929 136.259 54.7471C136.838 54.4012 137.517 54.2277 138.297 54.2266C138.821 54.2258 139.309 54.3096 139.761 54.4779C140.217 54.6429 140.614 54.8924 140.953 55.2265C141.295 55.5606 141.561 55.9811 141.752 56.4879C141.942 56.9913 142.038 57.5811 142.039 58.2573L142.04 58.8627L135.328 58.8727L135.326 57.5066L139.963 57.4997C139.962 57.1823 139.893 56.9012 139.754 56.6565C139.616 56.4118 139.424 56.2206 139.179 56.083C138.937 55.9419 138.656 55.8716 138.335 55.8721C138.001 55.8726 137.704 55.9506 137.446 56.1063C137.191 56.2584 136.991 56.464 136.846 56.7229C136.702 56.9784 136.628 57.2632 136.625 57.5771L136.627 58.876C136.628 59.2692 136.7 59.6089 136.846 59.8951C136.995 60.1812 137.204 60.4016 137.473 60.5565C137.742 60.7113 138.061 60.7885 138.431 60.7879C138.676 60.7876 138.9 60.7527 139.103 60.6834C139.307 60.6141 139.481 60.5104 139.625 60.3722C139.77 60.234 139.88 60.0647 139.956 59.8645L141.995 59.996C141.892 60.4861 141.681 60.9142 141.36 61.2803C141.043 61.643 140.633 61.9265 140.13 62.1308C139.63 62.3317 139.052 62.4326 138.397 62.4335ZM146.856 62.2657L146.844 54.3173L149.049 54.314L149.06 62.2624L146.856 62.2657ZM147.95 53.2911C147.622 53.2916 147.341 53.1833 147.106 52.9663C146.875 52.7459 146.759 52.4821 146.758 52.1751C146.758 51.8715 146.873 51.6109 147.104 51.3932C147.338 51.1721 147.619 51.0613 147.947 51.0608C148.274 51.0603 148.554 51.1703 148.785 51.3907C149.02 51.6077 149.138 51.868 149.139 52.1716C149.139 52.4786 149.022 52.7427 148.788 52.9638C148.557 53.1815 148.278 53.2906 147.95 53.2911ZM153.024 57.6613L153.031 62.2565L150.826 62.2598L150.814 54.3114L152.915 54.3083L152.917 55.7106L153.011 55.7105C153.186 55.2479 153.48 54.8818 153.894 54.6121C154.307 54.339 154.809 54.202 155.399 54.2011C155.951 54.2003 156.432 54.3203 156.843 54.5612C157.254 54.802 157.574 55.1465 157.802 55.5947C158.031 56.0394 158.145 56.5705 158.146 57.188L158.154 62.2489L155.949 62.2521L155.942 57.5845C155.945 57.0981 155.82 56.7188 155.568 56.4467C155.316 56.1711 154.969 56.0336 154.527 56.0342C154.231 56.0347 153.969 56.0989 153.741 56.2269C153.517 56.3548 153.341 56.5414 153.214 56.7865C153.09 57.0282 153.027 57.3198 153.024 57.6613ZM163.483 62.3962C162.668 62.3974 161.968 62.2259 161.381 61.8818C160.797 61.5343 160.348 61.0519 160.033 60.4349C159.722 59.8178 159.566 59.1074 159.564 58.3036C159.563 57.4895 159.719 56.7751 160.032 56.1606C160.349 55.5426 160.798 55.0607 161.381 54.7148C161.963 54.3655 162.656 54.1903 163.46 54.1891C164.153 54.188 164.761 54.3131 165.282 54.5641C165.803 54.8152 166.216 55.1682 166.52 55.6231C166.825 56.078 166.993 56.6125 167.025 57.2265L164.944 57.2296C164.885 56.833 164.73 56.5141 164.477 56.273C164.229 56.0284 163.902 55.9064 163.499 55.907C163.157 55.9075 162.859 56.0011 162.604 56.1878C162.352 56.371 162.156 56.6387 162.015 56.9908C161.874 57.3428 161.804 57.769 161.805 58.2692C161.806 58.7763 161.875 59.2075 162.014 59.5626C162.156 59.9177 162.355 60.1882 162.61 60.3741C162.866 60.56 163.164 60.6527 163.506 60.6522C163.758 60.6519 163.984 60.5998 164.184 60.496C164.387 60.3922 164.554 60.2419 164.685 60.045C164.819 59.8447 164.907 59.6049 164.948 59.3254L167.028 59.3223C166.994 59.9295 166.829 60.4644 166.533 60.9272C166.241 61.3864 165.836 61.7458 165.319 62.0053C164.802 62.2648 164.19 62.3951 163.483 62.3962ZM172.035 62.3834C171.231 62.3846 170.536 62.2149 169.949 61.8742C169.365 61.5301 168.914 61.0513 168.596 60.4377C168.278 59.8206 168.118 59.105 168.117 58.2909C168.116 57.4698 168.273 56.752 168.59 56.1375C168.906 55.5195 169.356 55.0393 169.938 54.6969C170.524 54.351 171.219 54.1775 172.023 54.1763C172.827 54.1751 173.52 54.3466 174.104 54.6907C174.691 55.0313 175.143 55.5102 175.462 56.1272C175.78 56.7408 175.94 57.4582 175.941 58.2792C175.942 59.0934 175.785 59.8094 175.468 60.4274C175.152 61.042 174.701 61.5222 174.115 61.868C173.532 62.2104 172.839 62.3822 172.035 62.3834ZM172.043 60.6757C172.409 60.6752 172.714 60.5712 172.958 60.3639C173.203 60.1531 173.387 59.8665 173.511 59.5041C173.638 59.1416 173.701 58.7293 173.7 58.267C173.7 57.8047 173.635 57.3926 173.507 57.0306C173.382 56.6685 173.197 56.3824 172.952 56.1724C172.707 55.9623 172.401 55.8575 172.036 55.8581C171.667 55.8586 171.356 55.9643 171.105 56.1751C170.857 56.3859 170.669 56.6725 170.542 57.035C170.418 57.3974 170.357 57.8097 170.358 58.272C170.358 58.7343 170.421 59.1464 170.546 59.5085C170.674 59.8705 170.862 60.1566 171.111 60.3666C171.363 60.5733 171.674 60.6763 172.043 60.6757ZM177.38 62.2202L177.368 54.2718L179.469 54.2687L179.472 55.6711L179.565 55.6709C179.73 55.2049 180.005 54.8371 180.391 54.5675C180.777 54.2978 181.239 54.1626 181.777 54.1618C182.322 54.161 182.786 54.2965 183.17 54.5685C183.553 54.837 183.809 55.2023 183.937 55.6644L184.02 55.6643C184.182 55.2087 184.474 54.8443 184.898 54.5711C185.326 54.2945 185.831 54.1557 186.414 54.1549C187.155 54.1538 187.758 54.3892 188.221 54.8611C188.687 55.3296 188.921 55.9951 188.922 56.8575L188.93 62.203L186.731 62.2063L186.724 57.2955C186.723 56.8539 186.605 56.5229 186.37 56.3024C186.135 56.082 185.842 55.9721 185.49 55.9726C185.09 55.9732 184.778 56.1013 184.554 56.3569C184.33 56.6091 184.219 56.9421 184.219 57.3561L184.226 62.21L182.089 62.2132L182.082 57.2558C182.081 56.866 181.969 56.5557 181.744 56.3249C181.523 56.0941 181.231 55.9789 180.869 55.9795C180.624 55.9798 180.404 56.0423 180.207 56.1667C180.014 56.2878 179.861 56.4588 179.747 56.6797C179.634 56.8972 179.577 57.1526 179.578 57.4458L179.585 62.2169L177.38 62.2202ZM194.294 62.3502C193.477 62.3515 192.773 62.1869 192.182 61.8566C191.595 61.5229 191.143 61.0509 190.824 60.4408C190.506 59.8272 190.346 59.1012 190.345 58.2629C190.344 57.4453 190.501 56.7275 190.818 56.1095C191.134 55.4915 191.58 55.0096 192.156 54.6638C192.735 54.3179 193.414 54.1444 194.194 54.1433C194.718 54.1425 195.207 54.2263 195.659 54.3947C196.114 54.5596 196.511 54.8091 196.85 55.1432C197.192 55.4773 197.458 55.8978 197.649 56.4047C197.839 56.908 197.935 57.4978 197.936 58.174L197.937 58.7794L191.225 58.7894L191.223 57.4233L195.86 57.4164C195.859 57.099 195.79 56.818 195.652 56.5732C195.513 56.3285 195.322 56.1373 195.076 55.9997C194.835 55.8586 194.553 55.7883 194.233 55.7888C193.898 55.7893 193.601 55.8673 193.343 56.023C193.088 56.1751 192.888 56.3807 192.744 56.6397C192.599 56.8952 192.525 57.1799 192.522 57.4938L192.524 58.7927C192.525 59.1859 192.598 59.5256 192.743 59.8118C192.892 60.0979 193.101 60.3184 193.37 60.4732C193.64 60.628 193.959 60.7052 194.328 60.7046C194.573 60.7043 194.797 60.6694 195 60.6001C195.204 60.5308 195.378 60.4271 195.523 60.2889C195.667 60.1507 195.777 59.9815 195.853 59.7813L197.892 59.9128C197.789 60.4028 197.578 60.8309 197.258 61.197C196.941 61.5597 196.531 61.8432 196.027 62.0475C195.527 62.2484 194.95 62.3493 194.294 62.3502Z" fill="#171A22"/>
<path d="M97.1797 233.454C98.2128 230.985 101.441 226.049 106.09 226.049C111.901 226.049 115.775 233.454 122.749 233.454C129.722 233.454 139.795 226.049 143.669 226.049C147.543 226.049 147.737 233.454 149.868 233.454C151.999 233.454 153.355 211.979 157.616 212.72C161.878 213.46 162.071 233.454 166.527 233.454C170.982 233.454 192.096 234.194 195.195 226.049C198.294 217.903 199.457 189.764 202.556 189.764C205.655 189.764 206.236 212.72 209.529 212.72C212.822 212.72 211.847 145.857 217.859 137.503C222.603 130.91 223.114 115.526 225.413 99.4089" stroke="#45E0A8" stroke-width="2.9144"/>
<path d="M55.6489 237.688C55.0251 237.688 54.4939 237.518 54.055 237.179C53.6162 236.837 53.2809 236.341 53.0491 235.693C52.8173 235.041 52.7013 234.255 52.7013 233.333C52.7013 232.417 52.8173 231.634 53.0491 230.986C53.2837 230.335 53.6204 229.838 54.0592 229.496C54.5008 229.151 55.0307 228.978 55.6489 228.978C56.2671 228.978 56.7956 229.151 57.2344 229.496C57.676 229.838 58.0127 230.335 58.2445 230.986C58.4791 231.634 58.5964 232.417 58.5964 233.333C58.5964 234.255 58.4805 235.041 58.2486 235.693C58.0168 236.341 57.6815 236.837 57.2427 237.179C56.8039 237.518 56.2726 237.688 55.6489 237.688ZM55.6489 236.777C56.2671 236.777 56.7473 236.479 57.0895 235.883C57.4317 235.287 57.6028 234.437 57.6028 233.333C57.6028 232.599 57.5242 231.974 57.3669 231.458C57.2123 230.942 56.9888 230.548 56.6962 230.278C56.4064 230.008 56.0573 229.872 55.6489 229.872C55.0362 229.872 54.5573 230.174 54.2124 230.779C53.8674 231.381 53.6949 232.232 53.6949 233.333C53.6949 234.067 53.7722 234.691 53.9267 235.204C54.0813 235.718 54.3034 236.108 54.5932 236.376C54.8858 236.644 55.2376 236.777 55.6489 236.777Z" fill="#898D9A"/>
<path d="M52.6848 95.9422V95.0977L56.4106 89.2027H57.0233V90.5108H56.6093L53.7942 94.9652V95.0315H58.8116V95.9422H52.6848ZM56.6755 97.6809V95.6855V95.2923V89.2027H57.6525V97.6809H56.6755ZM63.1284 97.7968C62.5047 97.7968 61.9734 97.6271 61.5346 97.2876C61.0958 96.9454 60.7604 96.45 60.5286 95.8015C60.2968 95.1501 60.1809 94.3636 60.1809 93.4418C60.1809 92.5255 60.2968 91.7431 60.5286 91.0945C60.7632 90.4432 61.0999 89.9464 61.5387 89.6042C61.9803 89.2592 62.5102 89.0867 63.1284 89.0867C63.7466 89.0867 64.2751 89.2592 64.7139 89.6042C65.1555 89.9464 65.4922 90.4432 65.724 91.0945C65.9586 91.7431 66.0759 92.5255 66.0759 93.4418C66.0759 94.3636 65.96 95.1501 65.7282 95.8015C65.4963 96.45 65.161 96.9454 64.7222 97.2876C64.2834 97.6271 63.7521 97.7968 63.1284 97.7968ZM63.1284 96.8861C63.7466 96.8861 64.2268 96.588 64.569 95.9919C64.9113 95.3958 65.0824 94.5457 65.0824 93.4418C65.0824 92.7077 65.0037 92.0826 64.8464 91.5665C64.6918 91.0504 64.4683 90.6571 64.1758 90.3866C63.886 90.1162 63.5369 89.9809 63.1284 89.9809C62.5157 89.9809 62.0369 90.2831 61.6919 90.8875C61.3469 91.4892 61.1744 92.3406 61.1744 93.4418C61.1744 94.1759 61.2517 94.7996 61.4062 95.313C61.5608 95.8263 61.783 96.2168 62.0728 96.4845C62.3653 96.7522 62.7172 96.8861 63.1284 96.8861ZM70.4144 97.7968C69.7907 97.7968 69.2594 97.6271 68.8206 97.2876C68.3818 96.9454 68.0464 96.45 67.8146 95.8015C67.5828 95.1501 67.4669 94.3636 67.4669 93.4418C67.4669 92.5255 67.5828 91.7431 67.8146 91.0945C68.0492 90.4432 68.3859 89.9464 68.8247 89.6042C69.2663 89.2592 69.7962 89.0867 70.4144 89.0867C71.0326 89.0867 71.5611 89.2592 71.9999 89.6042C72.4415 89.9464 72.7782 90.4432 73.01 91.0945C73.2446 91.7431 73.3619 92.5255 73.3619 93.4418C73.3619 94.3636 73.246 95.1501 73.0142 95.8015C72.7823 96.45 72.447 96.9454 72.0082 97.2876C71.5694 97.6271 71.0381 97.7968 70.4144 97.7968ZM70.4144 96.8861C71.0326 96.8861 71.5128 96.588 71.855 95.9919C72.1973 95.3958 72.3684 94.5457 72.3684 93.4418C72.3684 92.7077 72.2897 92.0826 72.1324 91.5665C71.9778 91.0504 71.7543 90.6571 71.4618 90.3866C71.172 90.1162 70.8229 89.9809 70.4144 89.9809C69.8017 89.9809 69.3229 90.2831 68.9779 90.8875C68.6329 91.4892 68.4604 92.3406 68.4604 93.4418C68.4604 94.1759 68.5377 94.7996 68.6922 95.313C68.8468 95.8263 69.069 96.2168 69.3588 96.4845C69.6513 96.7522 70.0032 96.8861 70.4144 96.8861ZM75.0841 97.6809V89.2027H76.1107V93.4087H76.2101L80.0187 89.2027H81.36L77.7997 93.0278L81.36 97.6809H80.118L77.1705 93.7398L76.1107 94.9321V97.6809H75.0841Z" fill="#898D9A"/>
<path d="M55.7482 132.77C55.2018 132.77 54.7147 132.676 54.2869 132.488C53.8619 132.301 53.5238 132.04 53.2726 131.706C53.0242 131.369 52.889 130.979 52.8669 130.534H53.9102C53.9322 130.807 54.0261 131.043 54.1917 131.242C54.3573 131.438 54.5739 131.59 54.8416 131.698C55.1093 131.805 55.406 131.859 55.7317 131.859C56.096 131.859 56.4189 131.795 56.7004 131.669C56.9819 131.542 57.2027 131.365 57.3627 131.139C57.5228 130.912 57.6028 130.65 57.6028 130.352C57.6028 130.04 57.5256 129.766 57.371 129.528C57.2165 129.288 56.9901 129.101 56.6921 128.965C56.394 128.83 56.0297 128.762 55.5992 128.762H54.9203V127.852H55.5992C55.9359 127.852 56.2312 127.791 56.4851 127.67C56.7418 127.548 56.9418 127.377 57.0854 127.156C57.2316 126.935 57.3048 126.676 57.3048 126.378C57.3048 126.091 57.2413 125.841 57.1143 125.629C56.9874 125.416 56.808 125.251 56.5762 125.132C56.3471 125.013 56.0766 124.954 55.7648 124.954C55.4722 124.954 55.1962 125.008 54.9368 125.115C54.6802 125.22 54.4704 125.373 54.3076 125.575C54.1447 125.774 54.0564 126.014 54.0426 126.295H53.0491C53.0656 125.851 53.1995 125.462 53.4506 125.128C53.7018 124.791 54.0302 124.529 54.4359 124.341C54.8444 124.153 55.2928 124.06 55.7813 124.06C56.3057 124.06 56.7556 124.166 57.1309 124.378C57.5062 124.588 57.7946 124.866 57.9961 125.21C58.1976 125.555 58.2983 125.928 58.2983 126.328C58.2983 126.806 58.1727 127.213 57.9216 127.549C57.6732 127.886 57.3351 128.119 56.9074 128.249V128.315C57.4428 128.404 57.8609 128.631 58.1617 128.998C58.4625 129.363 58.6129 129.814 58.6129 130.352C58.6129 130.813 58.4874 131.227 58.2362 131.594C57.9878 131.958 57.6484 132.245 57.2178 132.455C56.7873 132.665 56.2974 132.77 55.7482 132.77ZM63.0715 132.77C62.4477 132.77 61.9165 132.6 61.4777 132.261C61.0388 131.918 60.7035 131.423 60.4717 130.774C60.2399 130.123 60.124 129.336 60.124 128.415C60.124 127.498 60.2399 126.716 60.4717 126.067C60.7063 125.416 61.043 124.919 61.4818 124.577C61.9234 124.232 62.4533 124.06 63.0715 124.06C63.6897 124.06 64.2182 124.232 64.657 124.577C65.0986 124.919 65.4353 125.416 65.6671 126.067C65.9017 126.716 66.019 127.498 66.019 128.415C66.019 129.336 65.9031 130.123 65.6712 130.774C65.4394 131.423 65.1041 131.918 64.6653 132.261C64.2265 132.6 63.6952 132.77 63.0715 132.77ZM63.0715 131.859C63.6897 131.859 64.1699 131.561 64.5121 130.965C64.8543 130.369 65.0254 129.519 65.0254 128.415C65.0254 127.681 64.9468 127.055 64.7895 126.539C64.6349 126.023 64.4114 125.63 64.1188 125.36C63.8291 125.089 63.4799 124.954 63.0715 124.954C62.4588 124.954 61.98 125.256 61.635 125.86C61.29 126.462 61.1175 127.314 61.1175 128.415C61.1175 129.149 61.1948 129.773 61.3493 130.286C61.5039 130.799 61.726 131.19 62.0158 131.457C62.3084 131.725 62.6603 131.859 63.0715 131.859ZM70.3575 132.77C69.7337 132.77 69.2025 132.6 68.7637 132.261C68.3248 131.918 67.9895 131.423 67.7577 130.774C67.5259 130.123 67.41 129.336 67.41 128.415C67.41 127.498 67.5259 126.716 67.7577 126.067C67.9923 125.416 68.329 124.919 68.7678 124.577C69.2094 124.232 69.7393 124.06 70.3575 124.06C70.9757 124.06 71.5042 124.232 71.943 124.577C72.3846 124.919 72.7213 125.416 72.9531 126.067C73.1877 126.716 73.305 127.498 73.305 128.415C73.305 129.336 73.1891 130.123 72.9572 130.774C72.7254 131.423 72.3901 131.918 71.9513 132.261C71.5125 132.6 70.9812 132.77 70.3575 132.77ZM70.3575 131.859C70.9757 131.859 71.4559 131.561 71.7981 130.965C72.1403 130.369 72.3114 129.519 72.3114 128.415C72.3114 127.681 72.2328 127.055 72.0755 126.539C71.9209 126.023 71.6974 125.63 71.4048 125.36C71.1151 125.089 70.7659 124.954 70.3575 124.954C69.7448 124.954 69.266 125.256 68.921 125.86C68.576 126.462 68.4035 127.314 68.4035 128.415C68.4035 129.149 68.4808 129.773 68.6353 130.286C68.7899 130.799 69.012 131.19 69.3018 131.457C69.5944 131.725 69.9463 131.859 70.3575 131.859ZM75.0271 132.654V124.176H76.0538V128.382H76.1532L79.9617 124.176H81.303L77.7428 128.001L81.303 132.654H80.0611L77.1136 128.713L76.0538 129.905V132.654H75.0271Z" fill="#898D9A"/>
<path d="M52.8835 167.627V166.882L55.682 163.818C56.0104 163.459 56.2809 163.147 56.4934 162.883C56.7059 162.615 56.8632 162.364 56.9653 162.129C57.0702 161.892 57.1226 161.643 57.1226 161.384C57.1226 161.086 57.0509 160.828 56.9074 160.61C56.7666 160.392 56.5734 160.223 56.3278 160.105C56.0822 159.986 55.8062 159.927 55.4998 159.927C55.1742 159.927 54.8899 159.994 54.647 160.13C54.4069 160.262 54.2206 160.448 54.0882 160.688C53.9585 160.929 53.8936 161.21 53.8936 161.533H52.9166C52.9166 161.036 53.0311 160.6 53.2602 160.225C53.4893 159.849 53.8011 159.557 54.1958 159.347C54.5932 159.137 55.0389 159.033 55.5329 159.033C56.0297 159.033 56.4699 159.137 56.8535 159.347C57.2372 159.557 57.538 159.84 57.756 160.196C57.974 160.552 58.083 160.948 58.083 161.384C58.083 161.696 58.0265 162.001 57.9133 162.299C57.8029 162.594 57.6097 162.924 57.3337 163.288C57.0605 163.65 56.681 164.091 56.1953 164.613L54.291 166.65V166.716H58.2321V167.627H52.8835ZM62.7072 167.743C62.0834 167.743 61.5522 167.573 61.1134 167.233C60.6745 166.891 60.3392 166.396 60.1074 165.747C59.8756 165.096 59.7597 164.309 59.7597 163.388C59.7597 162.471 59.8756 161.689 60.1074 161.04C60.342 160.389 60.6787 159.892 61.1175 159.55C61.5591 159.205 62.089 159.033 62.7072 159.033C63.3254 159.033 63.8539 159.205 64.2927 159.55C64.7343 159.892 65.071 160.389 65.3028 161.04C65.5374 161.689 65.6547 162.471 65.6547 163.388C65.6547 164.309 65.5388 165.096 65.3069 165.747C65.0751 166.396 64.7398 166.891 64.301 167.233C63.8622 167.573 63.3309 167.743 62.7072 167.743ZM62.7072 166.832C63.3254 166.832 63.8056 166.534 64.1478 165.938C64.49 165.342 64.6611 164.492 64.6611 163.388C64.6611 162.653 64.5825 162.028 64.4252 161.512C64.2706 160.996 64.0471 160.603 63.7545 160.332C63.4648 160.062 63.1156 159.927 62.7072 159.927C62.0945 159.927 61.6157 160.229 61.2707 160.833C60.9257 161.435 60.7532 162.286 60.7532 163.388C60.7532 164.122 60.8305 164.745 60.985 165.259C61.1396 165.772 61.3617 166.163 61.6515 166.43C61.9441 166.698 62.296 166.832 62.7072 166.832ZM69.9932 167.743C69.3694 167.743 68.8382 167.573 68.3994 167.233C67.9605 166.891 67.6252 166.396 67.3934 165.747C67.1616 165.096 67.0457 164.309 67.0457 163.388C67.0457 162.471 67.1616 161.689 67.3934 161.04C67.628 160.389 67.9647 159.892 68.4035 159.55C68.8451 159.205 69.375 159.033 69.9932 159.033C70.6114 159.033 71.1399 159.205 71.5787 159.55C72.0203 159.892 72.357 160.389 72.5888 161.04C72.8234 161.689 72.9407 162.471 72.9407 163.388C72.9407 164.309 72.8248 165.096 72.5929 165.747C72.3611 166.396 72.0258 166.891 71.587 167.233C71.1482 167.573 70.6169 167.743 69.9932 167.743ZM69.9932 166.832C70.6114 166.832 71.0916 166.534 71.4338 165.938C71.776 165.342 71.9471 164.492 71.9471 163.388C71.9471 162.653 71.8685 162.028 71.7112 161.512C71.5566 160.996 71.3331 160.603 71.0405 160.332C70.7508 160.062 70.4016 159.927 69.9932 159.927C69.3805 159.927 68.9017 160.229 68.5567 160.833C68.2117 161.435 68.0392 162.286 68.0392 163.388C68.0392 164.122 68.1165 164.745 68.271 165.259C68.4256 165.772 68.6477 166.163 68.9375 166.43C69.2301 166.698 69.582 166.832 69.9932 166.832ZM74.6628 167.627V159.148H75.6895V163.354H75.7889L79.5974 159.148H80.9387L77.3785 162.974L80.9387 167.627H79.6968L76.7493 163.686L75.6895 164.878V167.627H74.6628Z" fill="#898D9A"/>
<path d="M55.8641 194.121V202.6H54.8375V195.198H54.7878L52.7179 196.572V195.529L54.8375 194.121H55.8641ZM61.0678 202.716C60.4441 202.716 59.9128 202.546 59.474 202.206C59.0352 201.864 58.6999 201.369 58.468 200.72C58.2362 200.069 58.1203 199.282 58.1203 198.36C58.1203 197.444 58.2362 196.662 58.468 196.013C58.7026 195.362 59.0393 194.865 59.4781 194.523C59.9197 194.178 60.4496 194.005 61.0678 194.005C61.686 194.005 62.2145 194.178 62.6534 194.523C63.0949 194.865 63.4316 195.362 63.6635 196.013C63.898 196.662 64.0153 197.444 64.0153 198.36C64.0153 199.282 63.8994 200.069 63.6676 200.72C63.4358 201.369 63.1005 201.864 62.6616 202.206C62.2228 202.546 61.6915 202.716 61.0678 202.716ZM61.0678 201.805C61.686 201.805 62.1662 201.507 62.5085 200.911C62.8507 200.314 63.0218 199.464 63.0218 198.36C63.0218 197.626 62.9431 197.001 62.7858 196.485C62.6313 195.969 62.4077 195.576 62.1152 195.305C61.8254 195.035 61.4763 194.9 61.0678 194.9C60.4551 194.9 59.9763 195.202 59.6313 195.806C59.2863 196.408 59.1138 197.259 59.1138 198.36C59.1138 199.095 59.1911 199.718 59.3457 200.232C59.5002 200.745 59.7224 201.136 60.0122 201.403C60.3047 201.671 60.6566 201.805 61.0678 201.805ZM68.3538 202.716C67.7301 202.716 67.1988 202.546 66.76 202.206C66.3212 201.864 65.9859 201.369 65.754 200.72C65.5222 200.069 65.4063 199.282 65.4063 198.36C65.4063 197.444 65.5222 196.662 65.754 196.013C65.9886 195.362 66.3253 194.865 66.7641 194.523C67.2057 194.178 67.7356 194.005 68.3538 194.005C68.972 194.005 69.5005 194.178 69.9394 194.523C70.3809 194.865 70.7176 195.362 70.9495 196.013C71.184 196.662 71.3013 197.444 71.3013 198.36C71.3013 199.282 71.1854 200.069 70.9536 200.72C70.7218 201.369 70.3865 201.864 69.9476 202.206C69.5088 202.546 68.9775 202.716 68.3538 202.716ZM68.3538 201.805C68.972 201.805 69.4522 201.507 69.7945 200.911C70.1367 200.314 70.3078 199.464 70.3078 198.36C70.3078 197.626 70.2291 197.001 70.0718 196.485C69.9173 195.969 69.6937 195.576 69.4012 195.305C69.1114 195.035 68.7623 194.9 68.3538 194.9C67.7411 194.9 67.2623 195.202 66.9173 195.806C66.5723 196.408 66.3998 197.259 66.3998 198.36C66.3998 199.095 66.4771 199.718 66.6317 200.232C66.7862 200.745 67.0084 201.136 67.2982 201.403C67.5907 201.671 67.9426 201.805 68.3538 201.805ZM73.0235 202.6V194.121H74.0501V198.327H74.1495L77.9581 194.121H79.2994L75.7392 197.947L79.2994 202.6H78.0574L75.1099 198.659L74.0501 199.851V202.6H73.0235Z" fill="#898D9A"/>
<defs>
<filter id="filter0_d_2058_16970" x="0.845352" y="0.546524" width="297.01" height="304.309" filterUnits="userSpaceOnUse" color-interpolation-filters="sRGB">
<feFlood flood-opacity="0" result="BackgroundImageFix"/>
<feColorMatrix in="SourceAlpha" type="matrix" values="0 0 0 0 0 0 0 0 0 0 0 0 0 0 0 0 0 0 127 0" result="hardAlpha"/>
<feOffset dx="6.70099" dy="6.70099"/>
<feGaussianBlur stdDeviation="15.0772"/>
<feColorMatrix type="matrix" values="0 0 0 0 0 0 0 0 0 0 0 0 0 0 0 0 0 0 0.1 0"/>
<feBlend mode="normal" in2="BackgroundImageFix" result="effect1_dropShadow_2058_16970"/>
<feBlend mode="normal" in="SourceGraphic" in2="effect1_dropShadow_2058_16970" result="shape"/>
</filter>
</defs>
</svg>
